<?xml version="1.0" standalone="no"?>
<!DOCTYPE svg PUBLIC "-//W3C//DTD SVG 20010904//EN"
 "http://www.w3.org/TR/2001/REC-SVG-20010904/DTD/svg10.dtd">
<svg version="1.0" xmlns="http://www.w3.org/2000/svg"
 width="13374.000000pt" height="2321.000000pt" viewBox="0 0 13374.000000 2321.000000"
 preserveAspectRatio="xMidYMid meet">

<g transform="translate(0.000000,2321.000000) scale(0.100000,-0.100000)"
fill="#000000" stroke="none">
<path d="M120820 23199 c-1289 -57 -2518 -495 -3535 -1259 -374 -281 -699
-588 -1026 -970 -369 -431 -602 -775 -809 -1195 -295 -596 -458 -1210 -530
-1996 -41 -451 -43 -545 -49 -1999 l-6 -1425 -868 -3 -867 -2 2 -2028 3 -2027
868 -3 867 -2 0 -4910 0 -4910 2460 0 2460 0 0 4910 0 4910 1720 0 1720 0 0
2030 0 2030 -1717 2 -1718 3 0 1300 c0 1335 1 1397 41 1705 51 400 165 743
326 985 68 102 222 258 318 322 189 126 383 197 660 240 179 28 555 25 760 -6
375 -56 669 -151 1293 -415 l37 -16 0 2125 0 2125 -79 40 c-522 262 -1115 409
-1776 440 -232 11 -299 11 -555 -1z"/>
<path d="M131405 23203 c-1673 -50 -3275 -765 -4401 -1963 -924 -984 -1375
-1895 -1543 -3120 -25 -178 -57 -530 -72 -790 -8 -122 -14 -717 -18 -1585 l-6
-1390 -862 -3 -863 -2 0 -2030 0 -2030 865 0 865 0 0 -4910 0 -4910 2460 0
2460 0 0 4910 0 4910 1720 0 1720 0 0 2030 0 2030 -1717 2 -1718 3 -3 1055
c-4 1383 8 1737 69 2100 106 631 359 1039 775 1248 268 135 690 197 1094 162
414 -36 764 -138 1393 -403 l107 -46 0 2125 0 2124 -89 45 c-515 258 -1100
403 -1761 435 -194 9 -262 10 -475 3z"/>
<path d="M81520 11705 l0 -11235 2460 0 2460 0 0 11235 0 11235 -2460 0 -2460
0 0 -11235z"/>
<path d="M91927 22440 c-477 -43 -934 -208 -1327 -478 -304 -208 -602 -521
-795 -832 -150 -242 -292 -595 -348 -865 -108 -512 -72 -1035 104 -1518 53
-146 170 -384 258 -522 204 -324 500 -627 817 -838 614 -406 1358 -550 2084
-401 523 107 1042 396 1422 793 416 433 678 982 754 1576 20 156 22 474 5 625
-94 821 -540 1549 -1233 2010 -348 232 -727 374 -1158 435 -138 19 -447 27
-583 15z"/>
<path d="M8875 18954 c-466 -24 -799 -69 -1169 -160 -1078 -266 -1972 -863
-2749 -1836 -85 -108 -114 -138 -133 -138 l-24 0 0 845 0 845 -2400 0 -2400 0
0 -5965 0 -5965 2400 0 2400 0 0 2698 c0 1614 4 2803 10 2962 34 885 147 1474
375 1947 236 490 565 792 1032 948 343 115 819 138 1210 59 918 -186 1433
-923 1583 -2264 57 -510 60 -696 60 -3682 l0 -2668 2394 0 2395 0 4 2758 c5
2694 7 2869 37 3237 66 789 241 1372 536 1786 115 161 323 359 488 464 462
294 1237 397 1806 238 779 -216 1215 -900 1350 -2114 37 -334 42 -458 47
-1117 4 -545 8 -654 19 -659 12 -4 14 -394 14 -2597 0 -2469 4 -2916 30 -3226
50 -592 170 -1179 335 -1635 534 -1472 1596 -2457 3245 -3006 1079 -359 2404
-523 3958 -488 932 20 1684 104 2424 269 1507 336 2642 999 3369 1970 525 700
850 1564 974 2590 52 432 49 136 52 4808 l3 4322 -2395 0 -2395 0 0 -3602 c0
-3584 -4 -4016 -35 -4328 -60 -602 -190 -1033 -413 -1370 -306 -463 -764 -719
-1462 -817 -159 -22 -774 -26 -940 -5 -586 72 -989 248 -1301 569 -113 116
-198 227 -273 361 -212 375 -328 859 -366 1532 -6 109 -10 1579 -10 3917 l0
3742 -22 3 c-20 3 -23 10 -25 48 -56 1021 -265 1898 -618 2595 -630 1245
-1722 1942 -3292 2099 -1247 125 -2404 -105 -3423 -682 -720 -407 -1351 -1023
-1760 -1717 -29 -49 -61 -103 -70 -118 l-17 -28 -84 143 c-235 402 -488 727
-810 1043 -369 362 -708 603 -1171 835 -610 304 -1272 479 -2051 540 -137 11
-626 20 -742 14z"/>
<path d="M45410 14808 c-900 -25 -1730 -244 -2435 -642 -155 -88 -460 -291
-598 -399 -350 -274 -737 -664 -1021 -1029 -77 -99 -95 -118 -118 -118 l-28 0
0 865 0 865 -2460 0 -2460 0 0 -6940 0 -6940 2460 0 2460 0 0 3513 c0 3922 3
4098 61 4622 127 1148 499 1853 1147 2179 251 126 482 185 819 208 342 23 700
-23 974 -127 818 -311 1244 -1108 1353 -2530 32 -409 36 -879 36 -4367 l0
-3498 2459 0 2460 0 4 3648 c4 3718 4 3759 42 4192 51 580 167 1065 340 1427
116 242 223 400 384 566 303 314 681 493 1191 564 180 25 593 25 745 0 491
-81 831 -278 1108 -643 282 -372 461 -941 532 -1689 39 -411 38 -379 42 -4267
l4 -3798 2465 0 2465 0 -4 4648 c-4 4766 -4 4718 -43 5162 -204 2325 -1195
3772 -2946 4299 -761 230 -1745 296 -2588 175 -1523 -218 -2869 -1042 -3657
-2237 -78 -119 -203 -327 -203 -339 0 -22 -20 -3 -45 45 -46 85 -159 270 -226
369 -722 1077 -1761 1782 -3054 2071 -526 118 -1040 163 -1665 145z"/>
<path d="M68770 14809 c-2009 -58 -3823 -971 -5086 -2559 -517 -650 -939
-1436 -1214 -2260 -227 -679 -356 -1351 -401 -2086 -15 -256 -7 -940 15 -1174
35 -375 91 -737 167 -1074 427 -1889 1514 -3507 3039 -4523 1145 -763 2483
-1148 3895 -1120 651 13 1209 106 1785 297 969 322 1737 875 2229 1608 55 81
66 92 92 92 l29 0 0 -770 0 -770 2460 0 2460 0 0 6940 0 6940 -2460 0 -2460 0
0 -670 c0 -368 -2 -670 -5 -670 -3 0 -22 19 -42 43 -90 102 -338 347 -447 440
-498 427 -1076 752 -1746 982 -566 193 -1226 315 -1790 331 -102 2 -207 6
-235 7 -27 2 -156 0 -285 -4z m1795 -4279 c484 -33 893 -140 1285 -336 656
-329 1151 -883 1413 -1584 371 -995 254 -2198 -296 -3025 -429 -645 -1071
-1063 -1882 -1224 -261 -52 -377 -63 -700 -68 -320 -5 -500 6 -742 47 -857
146 -1539 572 -1985 1240 -97 145 -216 375 -282 542 -308 784 -308 1750 0
2531 305 774 872 1344 1639 1650 456 182 1011 263 1550 227z"/>
<path d="M104235 14809 c-1693 -40 -3239 -500 -4450 -1327 -163 -111 -361
-261 -530 -401 -190 -158 -624 -591 -782 -781 -783 -940 -1288 -2066 -1507
-3360 -83 -485 -115 -847 -123 -1395 -9 -625 26 -1113 123 -1675 283 -1652
1061 -3042 2269 -4050 1063 -888 2441 -1467 4040 -1699 550 -80 928 -105 1575
-105 553 -1 747 9 1170 60 1463 174 2753 660 3765 1416 631 471 1116 1005
1515 1668 103 172 291 551 369 746 97 243 224 641 266 831 l7 33 -2369 0
-2369 0 -58 -93 c-370 -598 -901 -974 -1564 -1107 -260 -52 -404 -64 -742 -64
-324 0 -465 9 -727 50 -1364 210 -2154 1052 -2318 2469 -16 139 -36 543 -28
558 2 4 2335 7 5184 7 l5179 0 0 418 c0 673 -30 1120 -111 1671 -324 2206
-1371 3932 -3018 4975 -283 179 -719 406 -1022 530 -936 385 -2015 601 -3099
622 -146 2 -287 6 -315 7 -27 1 -176 0 -330 -4z m955 -3218 c549 -81 1034
-290 1450 -624 112 -90 335 -319 421 -432 240 -315 398 -651 478 -1018 l19
-87 -2854 0 c-2277 0 -2854 3 -2854 13 0 28 62 250 99 359 192 555 546 1009
1036 1330 368 241 853 409 1340 462 216 24 214 24 480 21 185 -3 285 -9 385
-24z"/>
<path d="M89690 7410 l0 -6940 2465 0 2465 0 0 6940 0 6940 -2465 0 -2465 0 0
-6940z"/>
<path d="M285 3623 c3 -87 13 -239 21 -338 110 -1342 712 -2333 1723 -2838
389 -194 765 -300 1291 -364 136 -16 459 -18 5343 -20 l5197 -3 0 1860 0 1860
-6791 0 -6790 0 6 -157z"/>
</g>
</svg>
