<?xml version="1.0" encoding="UTF-8"?>
<!DOCTYPE svg PUBLIC "-//W3C//DTD SVG 1.1//EN" "http://www.w3.org/Graphics/SVG/1.1/DTD/svg11.dtd">
<!-- Creator: CorelDRAW 2021 (64-Bit) -->
<svg xmlns="http://www.w3.org/2000/svg" xml:space="preserve" width="45.8826in" height="7.95939in" version="1.1" style="shape-rendering:geometricPrecision; text-rendering:geometricPrecision; image-rendering:optimizeQuality; fill-rule:evenodd; clip-rule:evenodd"
viewBox="0 0 93641.18 16244.23"
 xmlns:xlink="http://www.w3.org/1999/xlink"
 xmlns:xodm="http://www.corel.com/coreldraw/odm/2003">
 <defs>
  <style type="text/css">
   <![CDATA[
    .fil0 {fill:white}
    .fil1 {fill:white;fill-rule:nonzero}
   ]]>
  </style>
 </defs>
 <g id="Layer_x0020_1">
  <metadata id="CorelCorpID_0Corel-Layer"/>
  <g id="_2223070244784">
   <path class="fil0" d="M3358.36 3289.53l-3358.36 0 0 8355.99 3358.36 0 0 -3410.89c0,-1051.52 0,-2657.19 1494.56,-2657.19 1494.56,0 1494.56,1606.36 1494.56,2657.19l0 3410.89 3358.03 0 0 -3410.89c0,-1125.34 55.55,-2583.32 1605.34,-2583.32 1421.03,0 1384.12,1605.34 1384.12,2583.32l0 190.61 20.97 0 0 3596.86c0,3118.5 2195.74,4077.85 5037.19,4077.85 2841.45,0 5037.19,-959.35 5037.19,-4077.85l0 -5701.49 -3357.99 0 0 5055.83c0,1199.16 -295.41,2048.06 -1679.2,2048.06 -1383.79,0 -1679.16,-848.9 -1679.16,-2048.06l0 -5055.83 -30.94 0c-99.82,-1965.62 -970.34,-3344.75 -3218.97,-3344.75 -1291.67,0 -2564.68,627.4 -3210.68,1808.24 -682.57,-1254.71 -1863.47,-1808.24 -3228.99,-1808.24 -1217.8,0 -2195.74,442.76 -2989.09,1494.56l-36.95 0 0 -1180.89z"/>
   <path class="fil1" d="M28853.93 6198.18l-3449.79 0 0 9723.8 3449.79 0 0 -4643.91c0,-1080.42 0,-2729.47 1535.29,-2729.47 1535.34,0 1535.34,1649.05 1535.34,2729.47l0 4643.91 3449.75 0 0 -4643.91c0,-1156.24 56.9,-2653.65 1649.09,-2653.65 1459.52,0 1421.59,1649.05 1421.59,2653.65l0 4643.91 3449.74 0 0 -6198.18c0,-2236.65 -852.95,-3847.82 -3317.07,-3847.82 -1326.8,0 -2634.68,644.45 -3298.1,1857.55 -701.36,-1288.92 -1914.45,-1857.55 -3317.07,-1857.55 -1251.03,0 -2255.62,454.93 -3070.69,1535.34l-37.88 0 0 -1213.14zm20376.32 2672.62c1402.67,0 2217.69,1004.65 2217.69,2198.77 0,1232.06 -815.02,2179.81 -2217.69,2179.81 -1402.67,0 -2217.68,-947.74 -2217.68,-2179.81 0,-1194.12 815.01,-2198.77 2217.68,-2198.77zm5553.72 -2672.62l-3449.74 0 0 947.74c-720.27,-852.95 -1895.48,-1269.95 -3013.78,-1269.95 -2881.16,0 -4871.38,2388.3 -4871.38,5174.62 0,2786.37 2028.15,5193.63 4909.27,5193.63 1137.27,0 2331.44,-435.95 2938.01,-1402.67l37.88 0 0 1080.42 3449.74 0 0 -9723.8zm5743.3 -6008.65l-3449.79 0 0 15732.44 3449.79 0 0 -15732.44zm5724.34 6008.65l-3449.79 0 0 9723.8 3449.79 0 0 -9723.8zm-1724.92 -5667.43c-1061.45,0 -1933.37,871.92 -1933.37,1933.36 0,1061.45 871.93,1933.37 1933.37,1933.37 1061.49,0 1933.41,-871.92 1933.41,-1933.37 0,-1061.45 -871.92,-1933.36 -1933.41,-1933.36zm6785.83 9117.23c208.49,-1004.6 1042.48,-1535.35 2047.08,-1535.35 928.82,0 1781.78,606.57 1952.33,1535.35l-3999.41 0zm7202.78 1630.08c0,-3317.07 -1952.34,-5402.09 -5326.26,-5402.09 -3165.43,0 -5383.16,1952.33 -5383.16,5193.59 0,3355 2407.26,5174.66 5629.54,5174.66 1118.35,0 2217.74,-265.4 3108.58,-815.06 890.89,-549.71 1573.28,-1383.71 1838.62,-2520.97l-3317.07 0c-379.1,644.45 -909.85,890.84 -1649.05,890.84 -1421.64,0 -2160.83,-758.17 -2160.83,-2160.83l7259.63 0 0 -360.14zm5364.19 -2236.65l2407.26 0 0 -2843.23 -2407.26 0 0 -1573.23c0,-1099.38 303.28,-1630.08 1194.12,-1630.08 454.93,0 815.07,151.64 1213.14,322.2l0 -2975.9c-473.89,-246.39 -947.74,-341.17 -1478.49,-341.17 -1307.88,0 -2539.94,549.67 -3392.89,1554.31 -947.74,1080.42 -985.63,2066.05 -985.63,3411.81l0 1232.05 -1213.14 0 0 2843.23 1213.14 0 0 6880.57 3449.74 0 0 -6880.57zm7354.42 0l2407.26 0 0 -2843.23 -2407.26 0 0 -1573.23c0,-1099.38 303.28,-1630.08 1194.12,-1630.08 454.93,0 815.07,151.64 1213.14,322.2l0 -2975.9c-473.9,-246.39 -947.74,-341.17 -1478.49,-341.17 -1307.88,0 -2539.94,549.67 -3392.9,1554.31 -947.74,1080.42 -985.63,2066.05 -985.63,3411.81l0 1232.05 -1213.14 0 0 2843.23 1213.14 0 0 6880.57 3449.75 0 0 -6880.57z"/>
   <path class="fil0" d="M9702.31 13603.03l-9506.39 0 0 0.42c0,1748.22 1027.99,2603.59 2459.97,2603.59l7046.42 0 0 -2604.01z"/>
  </g>
 </g>
</svg>
